<svg width="169" height="42" viewBox="0 0 169 42" fill="none" xmlns="http://www.w3.org/2000/svg">
<path d="M29.4776 18.0111C29.485 18.011 29.4925 18.011 29.5 18.011C31.9853 18.011 34 20.0294 34 22.5193C34 24.8398 32.25 26.7508 30 27M29.4776 18.0111C29.4924 17.8461 29.5 17.679 29.5 17.5101C29.5 14.4669 27.0376 12 24 12C21.1232 12 18.7623 14.2127 18.5204 17.0319M29.4776 18.0111C29.3753 19.1476 28.9286 20.1846 28.2428 21.0165M18.5204 17.0319C15.984 17.2737 14 19.4139 14 22.0183C14 24.4417 15.7178 26.4632 18 26.9273M18.5204 17.0319C18.6783 17.0169 18.8382 17.0092 19 17.0092C20.1258 17.0092 21.1647 17.3819 22.0005 18.011" stroke="#0D6CF2" stroke-width="1.5" stroke-linecap="round" stroke-linejoin="round"/>
<path d="M24 30V22M24 30C23.2998 30 21.9915 28.0057 21.5 27.5M24 30C24.7002 30 26.0085 28.0057 26.5 27.5" stroke="#0D6CF2" stroke-width="1.5" stroke-linecap="round" stroke-linejoin="round"/>
<path d="M45.36 15.108H49.472C51.0933 15.108 52.3307 15.604 53.184 16.596C54.048 17.588 54.48 18.9907 54.48 20.804C54.48 22.596 54.0267 23.9933 53.12 24.996C52.2133 25.9987 50.8907 26.5 49.152 26.5H45.36V15.108ZM46.848 25.204H49.088C50.4 25.204 51.3707 24.8413 52 24.116C52.64 23.3907 52.96 22.2867 52.96 20.804C52.96 19.3107 52.6453 18.2067 52.016 17.492C51.3973 16.7667 50.448 16.404 49.168 16.404H46.848V25.204ZM60.1743 26.708C58.9796 26.708 58.0249 26.308 57.3103 25.508C56.5743 24.708 56.2063 23.6627 56.2063 22.372C56.2063 21.0493 56.5796 19.9987 57.3263 19.22C58.0623 18.4307 59.0276 18.036 60.2223 18.036C61.3849 18.036 62.3343 18.42 63.0703 19.188C63.7956 19.9773 64.1583 21.0173 64.1583 22.308C64.1583 23.6093 63.7849 24.6653 63.0383 25.476C62.2809 26.2973 61.3263 26.708 60.1743 26.708ZM60.1743 25.476C60.9529 25.476 61.5663 25.188 62.0143 24.612C62.4623 24.036 62.6863 23.268 62.6863 22.308C62.6863 21.3693 62.4623 20.628 62.0143 20.084C61.5769 19.54 60.9636 19.268 60.1743 19.268C59.3956 19.268 58.7823 19.5453 58.3343 20.1C57.8969 20.6547 57.6783 21.412 57.6783 22.372C57.6783 23.3107 57.9023 24.0627 58.3503 24.628C58.7983 25.1933 59.4063 25.476 60.1743 25.476ZM73.7126 23.012L75.0726 18.244H76.5926L73.9046 26.5H72.4326L71.2646 21.572L70.8486 19.492L70.4006 21.572L69.1526 26.5H67.6486L65.0406 18.244H66.6406L67.9366 23.012L68.4326 24.98L68.8646 23.012L70.0486 18.244H71.6486L72.8326 23.012L73.2326 24.98L73.7126 23.012ZM82.424 18.036C83.2987 18.036 83.9813 18.276 84.472 18.756C84.9733 19.236 85.224 19.908 85.224 20.772V26.5H83.752V21.06C83.752 19.8973 83.2027 19.316 82.104 19.316C81.4107 19.316 80.8453 19.5347 80.408 19.972C79.9707 20.3987 79.752 21.044 79.752 21.908V26.5H78.28V18.244H79.656V19.412C80.2533 18.4947 81.176 18.036 82.424 18.036ZM89.252 26.5H87.78V15.108H89.252V26.5ZM95.2993 26.708C94.1046 26.708 93.1499 26.308 92.4353 25.508C91.6993 24.708 91.3313 23.6627 91.3313 22.372C91.3313 21.0493 91.7046 19.9987 92.4513 19.22C93.1873 18.4307 94.1526 18.036 95.3473 18.036C96.5099 18.036 97.4593 18.42 98.1953 19.188C98.9206 19.9773 99.2833 21.0173 99.2833 22.308C99.2833 23.6093 98.9099 24.6653 98.1633 25.476C97.4059 26.2973 96.4513 26.708 95.2993 26.708ZM95.2993 25.476C96.0779 25.476 96.6913 25.188 97.1393 24.612C97.5873 24.036 97.8113 23.268 97.8113 22.308C97.8113 21.3693 97.5873 20.628 97.1393 20.084C96.7019 19.54 96.0886 19.268 95.2993 19.268C94.5206 19.268 93.9073 19.5453 93.4593 20.1C93.0219 20.6547 92.8033 21.412 92.8033 22.372C92.8033 23.3107 93.0273 24.0627 93.4753 24.628C93.9233 25.1933 94.5313 25.476 95.2993 25.476ZM108.638 25.412H108.878V26.5H108.094C107.209 26.5 106.734 26.0947 106.67 25.284C106.382 25.7213 105.977 26.068 105.454 26.324C104.931 26.58 104.339 26.708 103.678 26.708C102.814 26.708 102.137 26.5 101.646 26.084C101.155 25.6573 100.91 25.0653 100.91 24.308C100.91 22.836 101.849 21.9773 103.726 21.732L105.838 21.46C106.233 21.4173 106.43 21.2093 106.43 20.836V20.484C106.43 19.6307 105.811 19.204 104.574 19.204C103.955 19.204 103.497 19.316 103.198 19.54C102.91 19.764 102.745 20.1427 102.702 20.676H101.246C101.385 18.884 102.531 17.988 104.686 17.988C106.841 17.988 107.918 18.868 107.918 20.628V24.692C107.918 24.9587 107.971 25.1453 108.078 25.252C108.185 25.3587 108.371 25.412 108.638 25.412ZM103.95 25.572C104.622 25.572 105.203 25.3747 105.694 24.98C106.185 24.5853 106.43 24.1267 106.43 23.604V22.452L103.966 22.82C102.899 22.98 102.366 23.4547 102.366 24.244C102.366 24.66 102.505 24.9853 102.782 25.22C103.07 25.4547 103.459 25.572 103.95 25.572ZM116.067 19.236V15.108H117.539V26.5H116.259V25.188C116.003 25.6467 115.64 26.0093 115.171 26.276C114.702 26.5427 114.179 26.676 113.603 26.676C112.504 26.676 111.63 26.26 110.979 25.428C110.328 24.6173 110.003 23.556 110.003 22.244C110.003 21.0067 110.334 19.9987 110.995 19.22C111.656 18.452 112.515 18.068 113.571 18.068C114.659 18.068 115.491 18.4573 116.067 19.236ZM112.083 24.548C112.488 25.124 113.043 25.412 113.747 25.412C114.451 25.412 115.027 25.1293 115.475 24.564C115.923 23.9987 116.147 23.236 116.147 22.276C116.147 21.3373 115.934 20.612 115.507 20.1C115.08 19.588 114.504 19.332 113.779 19.332C113.043 19.332 112.472 19.588 112.067 20.1C111.672 20.6013 111.475 21.316 111.475 22.244C111.475 23.2147 111.678 23.9827 112.083 24.548ZM129.301 26.772C127.722 26.772 126.469 26.2173 125.541 25.108C124.613 24.0093 124.149 22.5747 124.149 20.804C124.149 19.0333 124.618 17.6093 125.557 16.532C126.485 15.444 127.728 14.9 129.285 14.9C130.48 14.9 131.52 15.2307 132.405 15.892C133.269 16.5427 133.792 17.428 133.973 18.548H132.453C132.282 17.812 131.925 17.2413 131.381 16.836C130.837 16.4307 130.16 16.228 129.349 16.228C128.197 16.228 127.296 16.6333 126.645 17.444C125.994 18.2547 125.669 19.3747 125.669 20.804C125.669 22.244 125.994 23.38 126.645 24.212C127.296 25.0333 128.197 25.444 129.349 25.444C130.266 25.444 131.008 25.1827 131.573 24.66C132.149 24.1267 132.506 23.3587 132.645 22.356H134.117C133.925 23.732 133.402 24.8147 132.549 25.604C131.696 26.3827 130.613 26.772 129.301 26.772ZM140.316 26.74C137.404 26.74 135.852 25.428 135.66 22.804H137.084C137.233 24.6173 138.326 25.524 140.364 25.524C141.313 25.524 142.033 25.3427 142.524 24.98C143.025 24.6173 143.276 24.1 143.276 23.428C143.276 22.884 143.089 22.4573 142.716 22.148C142.353 21.828 141.734 21.5773 140.86 21.396L139.26 21.06C138.193 20.836 137.393 20.4947 136.86 20.036C136.326 19.5667 136.06 18.916 136.06 18.084C136.06 17.092 136.412 16.308 137.116 15.732C137.83 15.1453 138.828 14.852 140.108 14.852C141.377 14.852 142.38 15.1507 143.116 15.748C143.862 16.3453 144.278 17.1933 144.364 18.292H142.94C142.876 17.5667 142.598 17.0173 142.108 16.644C141.617 16.26 140.934 16.068 140.06 16.068C139.238 16.068 138.598 16.2333 138.14 16.564C137.692 16.8947 137.468 17.3587 137.468 17.956C137.468 18.4147 137.622 18.7827 137.932 19.06C138.241 19.3267 138.748 19.5347 139.452 19.684L141.452 20.116C143.628 20.5747 144.716 21.652 144.716 23.348C144.716 24.3827 144.337 25.2093 143.58 25.828C142.833 26.436 141.745 26.74 140.316 26.74ZM151.563 23.204L154.331 15.108H155.915L151.835 26.5H150.123L146.011 15.108H147.659L150.443 23.204L151.003 24.932L151.563 23.204Z" fill="#0D6CF2"/>
</svg>
