<svg width="51" height="50" viewBox="0 0 51 50" fill="none" xmlns="http://www.w3.org/2000/svg">
<rect x="0.25" width="50" height="50" rx="25" fill="#E9E6F4"/>
<path d="M26.25 20C26.25 22.2091 24.4591 24 22.25 24C20.0409 24 18.25 22.2091 18.25 20C18.25 17.7909 20.0409 16 22.25 16C24.4591 16 26.25 17.7909 26.25 20Z" stroke="#26018F" stroke-width="1.5"/>
<path d="M28.25 24C30.4591 24 32.25 22.2091 32.25 20C32.25 17.7909 30.4591 16 28.25 16" stroke="#26018F" stroke-width="1.5" stroke-linecap="round" stroke-linejoin="round"/>
<path d="M24.25 27H20.25C17.4886 27 15.25 29.2386 15.25 32C15.25 33.1046 16.1454 34 17.25 34H27.25C28.3546 34 29.25 33.1046 29.25 32C29.25 29.2386 27.0114 27 24.25 27Z" stroke="#26018F" stroke-width="1.5" stroke-linejoin="round"/>
<path d="M30.25 27C33.0114 27 35.25 29.2386 35.25 32C35.25 33.1046 34.3546 34 33.25 34H31.75" stroke="#26018F" stroke-width="1.5" stroke-linecap="round" stroke-linejoin="round"/>
</svg>
