<svg width="51" height="50" viewBox="0 0 51 50" fill="none" xmlns="http://www.w3.org/2000/svg">
<rect x="0.5" width="50" height="50" rx="25" fill="#009FB4" fill-opacity="0.1"/>
<path d="M15.75 25L17.9167 22.8333M17.9167 22.8333L25.5 15.25L33.0833 22.8333M17.9167 22.8333V33.6667C17.9167 34.265 18.4017 34.75 19 34.75H22.25M33.0833 22.8333L35.25 25M33.0833 22.8333V33.6667C33.0833 34.265 32.5983 34.75 32 34.75H28.75M22.25 34.75C22.8483 34.75 23.3333 34.265 23.3333 33.6667V29.3333C23.3333 28.735 23.8184 28.25 24.4167 28.25H26.5833C27.1816 28.25 27.6667 28.735 27.6667 29.3333V33.6667C27.6667 34.265 28.1517 34.75 28.75 34.75M22.25 34.75H28.75" stroke="#009FB4" stroke-width="2" stroke-linecap="round" stroke-linejoin="round"/>
</svg>
