<svg width="51" height="50" viewBox="0 0 51 50" fill="none" xmlns="http://www.w3.org/2000/svg">
<rect x="0.75" width="50" height="50" rx="25" fill="#018F87" fill-opacity="0.1"/>
<path d="M22.8116 17.8263L16.9891 22.9213C16.4898 23.3583 16.8246 24.1343 17.5124 24.1343C17.9326 24.1343 18.2732 24.4489 18.2732 24.8371V28.0806C18.2732 30.871 18.2732 32.2662 19.2118 33.1331C20.1503 34 21.6608 34 24.6819 34H26.8181C29.8392 34 31.3497 34 32.2882 33.1331C33.2268 32.2662 33.2268 30.871 33.2268 28.0806V24.8371C33.2268 24.4489 33.5674 24.1343 33.9876 24.1343C34.6754 24.1343 35.0102 23.3583 34.5109 22.9213L28.6883 17.8263C27.2969 16.6088 26.6012 16 25.75 16C24.8988 16 24.2031 16.6088 22.8116 17.8263Z" stroke="#018F87" stroke-width="1.5" stroke-linecap="round" stroke-linejoin="round"/>
<path d="M25.75 29H25.759" stroke="#018F87" stroke-width="2" stroke-linecap="round" stroke-linejoin="round"/>
</svg>
