<svg width="51" height="50" viewBox="0 0 51 50" fill="none" xmlns="http://www.w3.org/2000/svg">
<rect x="0.5" width="50" height="50" rx="25" fill="#E6F1FF"/>
<path d="M15.5 16.75C15.0858 16.75 14.75 17.0858 14.75 17.5C14.75 17.9142 15.0858 18.25 15.5 18.25V16.75ZM26.9697 22.0303C27.2626 22.3232 27.7374 22.3232 28.0303 22.0303C28.3232 21.7374 28.3232 21.2626 28.0303 20.9697L26.9697 22.0303ZM15.5 18.25H22.2574V16.75H15.5V18.25ZM23.8483 18.909L26.9697 22.0303L28.0303 20.9697L24.909 17.8484L23.8483 18.909ZM22.2574 18.25C22.8541 18.25 23.4264 18.487 23.8483 18.909L24.909 17.8484C24.2057 17.1451 23.2519 16.75 22.2574 16.75V18.25Z" fill="#0276FF"/>
<path d="M18.5 26.5H15.5" stroke="#0276FF" stroke-width="1.5" stroke-linecap="round" stroke-linejoin="round"/>
<path d="M22.5304 19.9697C22.2375 19.6768 21.7626 19.6768 21.4697 19.9697C21.1768 20.2626 21.1768 20.7374 21.4697 21.0303L22.5304 19.9697ZM20.5 23L21.0304 22.4697C20.7375 22.1768 20.2626 22.1768 19.9697 22.4697L20.5 23ZM17.45 22.4C17.1187 22.1515 16.6486 22.2186 16.4 22.55C16.1515 22.8814 16.2187 23.3515 16.55 23.6L17.45 22.4ZM21.4697 21.0303L23.4697 23.0303L24.5303 21.9697L22.5304 19.9697L21.4697 21.0303ZM22.5304 23.9697L21.0304 22.4697L19.9697 23.5303L21.4697 25.0303L22.5304 23.9697ZM17.753 22.6272L17.45 22.4L16.55 23.6L16.853 23.8272L17.753 22.6272ZM19.9697 22.4697C19.3729 23.0664 18.4282 23.1336 17.753 22.6272L16.853 23.8272C18.1253 24.7815 19.9058 24.6549 21.0304 23.5303L19.9697 22.4697ZM23.4697 23.9697C23.2103 24.2291 22.7898 24.2291 22.5304 23.9697L21.4697 25.0303C22.3149 25.8755 23.6852 25.8755 24.5303 25.0303L23.4697 23.9697ZM23.4697 23.0303C23.7291 23.2897 23.7291 23.7103 23.4697 23.9697L24.5303 25.0303C25.3755 24.1852 25.3755 22.8148 24.5303 21.9697L23.4697 23.0303Z" fill="#0276FF"/>
<path d="M18.5 24V28.5C18.5 30.3856 18.5 31.3284 19.0858 31.9142C19.6716 32.5 20.6144 32.5 22.5 32.5H31.5C33.3856 32.5 34.3284 32.5 34.9142 31.9142C35.5 31.3284 35.5 30.3856 35.5 28.5V25.5C35.5 23.6144 35.5 22.6716 34.9142 22.0858C34.3284 21.5 33.3856 21.5 31.5 21.5H23" stroke="#0276FF" stroke-width="1.5" stroke-linecap="round" stroke-linejoin="round"/>
<path d="M28.75 27C28.75 27.9665 27.9665 28.75 27 28.75C26.0335 28.75 25.25 27.9665 25.25 27C25.25 26.0335 26.0335 25.25 27 25.25C27.9665 25.25 28.75 26.0335 28.75 27Z" stroke="#0276FF" stroke-width="1.5" stroke-linecap="round" stroke-linejoin="round"/>
</svg>
