<svg width="51" height="50" viewBox="0 0 51 50" fill="none" xmlns="http://www.w3.org/2000/svg">
<rect x="0.25" width="50" height="50" rx="25" fill="#E9E6F4"/>
<path d="M19.8276 28.4816C18.4128 29.324 14.7034 31.0441 16.9627 33.1966C18.0663 34.248 19.2955 35 20.8409 35H29.6591C31.2045 35 32.4337 34.248 33.5373 33.1966C35.7966 31.0441 32.0872 29.324 30.6724 28.4816C27.3548 26.5061 23.1452 26.5061 19.8276 28.4816Z" stroke="#26018F" stroke-width="1.5" stroke-linecap="round" stroke-linejoin="round"/>
<path d="M29.75 19.5C29.75 21.9853 27.7353 24 25.25 24C22.7647 24 20.75 21.9853 20.75 19.5C20.75 17.0147 22.7647 15 25.25 15C27.7353 15 29.75 17.0147 29.75 19.5Z" stroke="#26018F" stroke-width="1.5"/>
</svg>
