<svg width="16" height="16" viewBox="0 0 16 16" fill="none" xmlns="http://www.w3.org/2000/svg">
<path d="M14.077 0.429688H0.811112C0.387734 0.429688 -0.000362992 0.779487 -0.000362992 1.23423V2.70339C-0.000362992 3.15813 0.387734 3.54291 0.811112 3.54291H14.077C14.5356 3.54291 14.8884 3.15813 14.9237 2.70339V1.26921C14.9237 0.779487 14.5356 0.429688 14.077 0.429688ZM14.077 8.68497H0.811112C0.599423 8.68497 0.387734 8.78991 0.211326 8.92983C0.0702001 9.06975 -0.0356445 9.27963 -0.0356445 9.52449V10.9936C-0.0356445 11.4484 0.352452 11.8332 0.775831 11.8332H14.0417C14.5003 11.8332 14.8532 11.4834 14.8884 10.9936V9.52449C14.9237 9.03477 14.5356 8.68497 14.077 8.68497ZM8.2908 12.7776H0.811112C0.599423 12.7776 0.387734 12.8476 0.246608 13.0225C0.105482 13.1624 -0.000362992 13.3723 -0.000362992 13.6171V15.0863C-0.000362992 15.541 0.387734 15.9258 0.811112 15.9258H8.25552C8.71418 15.9258 9.06699 15.541 9.06699 15.0863V13.5822C9.10227 13.1624 8.74946 12.7776 8.2908 12.7776ZM14.9237 4.55733H0.811112C0.599423 4.55733 0.387734 4.62729 0.246608 4.80219C0.105482 4.94211 -0.000362992 5.15199 -0.000362992 5.39685V6.86601C-0.000362992 7.32075 0.387734 7.70553 0.811112 7.70553H14.8884C15.3471 7.70553 15.6999 7.32075 15.6999 6.86601V5.39685C15.7352 4.90713 15.3824 4.55733 14.9237 4.55733Z" fill="#00C3F7"/>
</svg>
