<svg width="30" height="58" viewBox="0 0 30 58" fill="none" xmlns="http://www.w3.org/2000/svg">
<path d="M15.6336 57.9256C18.4254 57.9113 20.677 55.6345 20.6627 52.8401C20.6485 50.0458 18.3738 47.792 15.5819 47.8063C12.7901 47.8205 10.5385 50.0973 10.5528 52.8917C10.567 55.686 12.8417 57.9398 15.6336 57.9256Z" fill="#0D6CF2"/>
<path d="M25.2748 9.03983C26.7313 9.0324 27.9062 7.844 27.8988 6.38618C27.8914 4.92837 26.7043 3.75256 25.2479 3.75999C23.7912 3.76742 22.6165 4.95527 22.6239 6.41308C22.6314 7.8709 23.8181 9.04726 25.2748 9.03983Z" fill="#DFEDFF"/>
<path d="M14.797 0.0788619C6.89689 0.174956 0.461085 6.63426 0.389247 14.5416C0.388513 14.6145 0.390577 15.1276 0.394001 15.7989C0.399298 16.7834 0.794741 17.7254 1.49363 18.4178C2.19252 19.1104 3.13766 19.4968 4.12114 19.4918C4.60874 19.4893 5.09087 19.3904 5.54049 19.2014C5.98984 19.012 6.39758 18.7362 6.74031 18.3891C7.08304 18.042 7.35418 17.6312 7.53808 17.1794C7.72197 16.7276 7.81537 16.2434 7.81233 15.7555C7.80972 15.2989 7.80783 14.9828 7.80773 14.9632C7.80123 13.7413 8.11252 12.5388 8.71128 11.4738C9.31005 10.4088 10.1755 9.5181 11.2223 8.88951C12.2695 8.26064 13.4618 7.91558 14.6824 7.88808C15.9031 7.86058 17.1097 8.15169 18.184 8.73245C19.258 9.31348 20.1627 10.1642 20.8086 11.201C21.4546 12.2382 21.8198 13.4253 21.8683 14.6465C21.9168 15.8676 21.647 17.0801 21.0851 18.1651C20.5234 19.2501 19.6891 20.1699 18.6645 20.8343L18.6656 20.8362C18.6656 20.8362 13.4051 24.2636 11.8199 28.9372L11.8213 28.9378C11.5433 29.8951 11.405 30.8873 11.4106 31.8843C11.4127 32.294 11.455 35.8791 11.5165 38.7887C11.5377 39.7929 11.9528 40.7477 12.6716 41.4483C13.3905 42.1488 14.3555 42.5386 15.3589 42.5335C15.8628 42.5307 16.3615 42.4281 16.826 42.2321C17.2905 42.0358 17.7114 41.7497 18.0651 41.3898C18.4186 41.0302 18.6976 40.6045 18.8859 40.1364C19.0744 39.6682 19.1683 39.1674 19.1626 38.6627C19.133 35.998 19.1084 32.8951 19.1072 32.67C19.0926 29.8052 21.839 26.9368 24.0976 25.0641C26.6984 22.9073 28.5629 19.9766 29.3008 16.6778C29.4645 15.9984 29.5529 15.3035 29.5648 14.605C29.555 12.6784 29.1646 10.773 28.4157 8.99853C27.6671 7.22403 26.5748 5.6151 25.2021 4.26481C23.8293 2.9148 22.2031 1.8498 20.4175 1.13123C18.6316 0.412926 16.7214 0.0552365 14.797 0.0788619Z" fill="#0D6CF2"/>
<path d="M5.15884 17.7294C4.17536 17.7344 3.2305 17.3481 2.53161 16.6555C1.83272 15.9631 1.43727 15.0211 1.43198 14.0365C1.42855 13.3652 1.42649 12.8519 1.42722 12.779C1.44671 10.4793 2.01368 8.21736 3.08128 6.18109C1.32256 8.61678 0.363633 11.5393 0.337242 14.5444C0.336509 14.6173 0.338574 15.1306 0.342275 15.8022C0.347295 16.7865 0.742461 17.7285 1.44135 18.4211C2.14052 19.1134 3.08593 19.4998 4.06941 19.4948C4.87747 19.4904 5.6618 19.2223 6.30354 18.7306C6.94556 18.2391 7.40977 17.5516 7.6257 16.772C6.94977 17.3849 6.07105 17.7259 5.15884 17.7294Z" fill="#DFEDFF"/>
<path d="M15.0883 7.89532C16.2254 7.94367 17.3341 8.26787 18.3186 8.83969C19.303 9.41152 20.1343 10.2137 20.7406 11.1778C21.3472 12.1422 21.7109 13.239 21.8004 14.3749C21.8899 15.5107 21.7029 16.6512 21.2548 17.6986C21.9065 16.9248 22.3834 16.0193 22.6536 15.0441C22.924 14.0688 22.9813 13.0469 22.8212 12.0477C22.6611 11.0484 22.2872 10.0955 21.7256 9.25385C21.1644 8.41217 20.4284 7.7015 19.5676 7.17048C18.7071 6.63947 17.742 6.30017 16.7386 6.17627C15.7351 6.05237 14.7167 6.14624 13.7527 6.45201C12.789 6.75778 11.9023 7.26787 11.1532 7.94743C10.4041 8.62727 9.81027 9.46075 9.41222 10.391C10.1042 9.56783 10.9755 8.91471 11.9596 8.48176C12.9439 8.04908 14.0145 7.8483 15.0883 7.89532Z" fill="#DFEDFF"/>
<path d="M16.3963 40.7665C15.3932 40.7717 14.4282 40.3823 13.7094 39.6818C12.9905 38.9813 12.5754 38.0256 12.554 37.0217C12.4927 34.1122 12.4504 30.527 12.4483 30.1173C12.4427 29.1203 12.581 28.1284 12.859 27.1711L12.8577 27.1705C13.0223 26.6898 13.2216 26.2219 13.4542 25.7704C12.738 26.7357 12.1697 27.8031 11.7677 28.9362L11.7693 28.9364C11.4913 29.8937 11.353 30.8859 11.3586 31.8827C11.3607 32.2924 11.403 35.8775 11.4646 38.7871C11.486 39.7912 11.9008 40.7466 12.6197 41.4472C13.3385 42.1477 14.3033 42.5373 15.3066 42.5319C16.1337 42.5274 16.9371 42.2548 17.5965 41.7547C18.2559 41.2546 18.7352 40.5543 18.9629 39.7583C18.2634 40.4034 17.3478 40.7628 16.3963 40.7665Z" fill="#DFEDFF"/>
<path d="M14.5136 56.6985C13.7937 56.3888 13.1556 55.9164 12.6498 55.3181C12.1439 54.7195 11.7836 54.0116 11.598 53.2501C11.412 52.4885 11.4058 51.694 11.5792 50.9295C11.7527 50.1651 12.1013 49.4513 12.5974 48.8449C12.0208 49.2708 11.5409 49.8147 11.1902 50.4406C10.8398 51.0662 10.6259 51.7596 10.5635 52.4743C10.5009 53.1891 10.591 53.9088 10.8276 54.5861C11.0643 55.2632 11.4423 55.8823 11.9362 56.4022C12.4303 56.9221 13.0291 57.3309 13.693 57.6016C14.3568 57.872 15.0705 57.9982 15.787 57.9713C16.5032 57.9448 17.2057 57.766 17.8478 57.4467C18.4898 57.1277 19.0566 56.6753 19.5105 56.1202C18.8007 56.6451 17.9658 56.9745 17.0889 57.076C16.2123 57.1774 15.3243 57.0474 14.5136 56.6985Z" fill="#DFEDFF"/>
</svg>
