<svg width="51" height="50" viewBox="0 0 51 50" fill="none" xmlns="http://www.w3.org/2000/svg">
<rect x="0.25" width="50" height="50" rx="25" fill="#FFF6E5"/>
<path d="M25.75 35H19.8409C18.2955 35 17.0663 34.248 15.9627 33.1966C13.7034 31.0441 17.4128 29.324 18.8276 28.4816C21.2268 27.053 24.0925 26.6575 26.75 27.2952" stroke="#FFA500" stroke-width="1.5" stroke-linecap="round" stroke-linejoin="round"/>
<path d="M29.75 19.5C29.75 21.9853 27.7353 24 25.25 24C22.7647 24 20.75 21.9853 20.75 19.5C20.75 17.0147 22.7647 15 25.25 15C27.7353 15 29.75 17.0147 29.75 19.5Z" stroke="#FFA500" stroke-width="1.5"/>
<path d="M30.0096 29.378C28.9296 29.378 28.4671 30.1576 28.3471 30.6373C28.2271 31.117 28.2271 32.856 28.2991 33.5755C28.5391 34.475 29.1391 34.8468 29.7271 34.9667C30.2671 35.0147 32.5471 34.9967 33.2071 34.9967C34.1671 35.0147 34.8871 34.6549 35.1871 33.5755C35.2471 33.2157 35.3071 31.2369 35.1571 30.6373C34.8391 29.6778 34.116 29.378 33.516 29.378M30.0096 29.378H33.516M30.0096 29.378C30.0096 29.378 30.0082 28.5516 30.0096 28.1173C30.0109 27.7204 29.976 27.3378 30.1656 26.9876C30.876 25.5748 32.916 25.7187 33.42 27.1579C33.5073 27.3948 33.5126 27.7704 33.51 28.1173C33.5067 28.5605 33.516 29.378 33.516 29.378" stroke="#FFA500" stroke-width="1.5" stroke-linecap="round"/>
</svg>
