<svg width="51" height="50" viewBox="0 0 51 50" fill="none" xmlns="http://www.w3.org/2000/svg">
<rect x="0.75" width="50" height="50" rx="25" fill="#0D6CF2" fill-opacity="0.1"/>
<path d="M31.1665 33.6654H36.5832V31.4987C36.5832 29.7038 35.1281 28.2487 33.3332 28.2487C32.2979 28.2487 31.3757 28.7327 30.7806 29.4868M31.1665 33.6654H20.3332M31.1665 33.6654V31.4987C31.1665 30.7878 31.0295 30.1088 30.7806 29.4868M20.3332 33.6654H14.9165V31.4987C14.9165 29.7038 16.3716 28.2487 18.1665 28.2487C19.2017 28.2487 20.1239 28.7327 20.7191 29.4868M20.3332 33.6654V31.4987C20.3332 30.7878 20.4701 30.1088 20.7191 29.4868M20.7191 29.4868C21.5178 27.4915 23.4692 26.082 25.7498 26.082C28.0305 26.082 29.9819 27.4915 30.7806 29.4868M28.9998 19.582C28.9998 21.377 27.5448 22.832 25.7498 22.832C23.9549 22.832 22.4998 21.377 22.4998 19.582C22.4998 17.7871 23.9549 16.332 25.7498 16.332C27.5448 16.332 28.9998 17.7871 28.9998 19.582ZM35.4998 22.832C35.4998 24.0286 34.5298 24.9987 33.3332 24.9987C32.1366 24.9987 31.1665 24.0286 31.1665 22.832C31.1665 21.6354 32.1366 20.6654 33.3332 20.6654C34.5298 20.6654 35.4998 21.6354 35.4998 22.832ZM20.3332 22.832C20.3332 24.0286 19.3631 24.9987 18.1665 24.9987C16.9699 24.9987 15.9998 24.0286 15.9998 22.832C15.9998 21.6354 16.9699 20.6654 18.1665 20.6654C19.3631 20.6654 20.3332 21.6354 20.3332 22.832Z" stroke="#0D6CF2" stroke-width="1.5" stroke-linecap="round" stroke-linejoin="round"/>
</svg>
