<svg width="51" height="50" viewBox="0 0 51 50" fill="none" xmlns="http://www.w3.org/2000/svg">
<rect x="0.5" width="50" height="50" rx="25" fill="#018F87" fill-opacity="0.1"/>
<path d="M16.5 24C16.5 20.2503 16.5 18.3754 17.4549 17.0611C17.7633 16.6366 18.1366 16.2633 18.5611 15.9549C19.8754 15 21.7503 15 25.5 15C29.2497 15 31.1246 15 32.4389 15.9549C32.8634 16.2633 33.2367 16.6366 33.5451 17.0611C34.5 18.3754 34.5 20.2503 34.5 24V26C34.5 29.7497 34.5 31.6246 33.5451 32.9389C33.2367 33.3634 32.8634 33.7367 32.4389 34.0451C31.1246 35 29.2497 35 25.5 35C21.7503 35 19.8754 35 18.5611 34.0451C18.1366 33.7367 17.7633 33.3634 17.4549 32.9389C16.5 31.6246 16.5 29.7497 16.5 26V24Z" stroke="#018F87" stroke-width="1.5" stroke-linecap="round" stroke-linejoin="round"/>
<path d="M28.5 22.5H20.5M23.5 27.5H20.5" stroke="#018F87" stroke-width="1.5" stroke-linecap="round" stroke-linejoin="round"/>
</svg>
